<?xml version="1.0" standalone="no"?>
<!DOCTYPE svg PUBLIC "-//W3C//DTD SVG 20010904//EN"
 "http://www.w3.org/TR/2001/REC-SVG-20010904/DTD/svg10.dtd">
<svg version="1.0" xmlns="http://www.w3.org/2000/svg"
 width="200.000000pt" height="200.000000pt" viewBox="0 0 200.000000 200.000000"
 preserveAspectRatio="xMidYMid meet">
<metadata>
Created by potrace 1.14, written by Peter Selinger 2001-2017
</metadata>
<g transform="translate(0.000000,200.000000) scale(0.100000,-0.100000)"
fill="#000000" stroke="none">
<path d="M920 1991 c-149 -22 -313 -90 -427 -176 -88 -65 -198 -187 -249 -275
-44 -75 -104 -216 -104 -245 0 -34 18 -11 44 53 37 97 118 215 201 298 118
117 243 192 402 241 80 24 102 27 253 27 151 0 172 -3 255 -28 238 -73 441
-237 563 -456 37 -66 57 -117 88 -230 24 -85 24 -85 18 -27 -9 88 -40 192 -89
292 -121 251 -346 436 -612 504 -91 24 -259 34 -343 22z"/>
<path d="M1188 1642 c-221 -121 -270 -152 -239 -152 5 0 116 59 248 130 131
72 241 130 245 130 4 0 36 -57 72 -127 l66 -128 -22 -17 c-31 -23 -16 -33 21
-13 17 8 31 17 31 19 0 16 -154 296 -163 295 -7 0 -123 -62 -259 -137z"/>
<path d="M1313 1629 c-29 -16 -55 -38 -58 -48 -3 -11 15 -57 49 -120 42 -79
51 -103 40 -108 -27 -10 -14 -22 28 -25 34 -2 45 -8 57 -30 31 -54 -18 -110
-82 -94 -22 5 -26 11 -21 34 7 37 -112 256 -141 260 -32 4 -125 -55 -125 -80
0 -11 19 -56 42 -99 45 -84 58 -92 103 -63 32 21 69 15 73 -13 2 -16 -7 -28
-42 -48 -51 -30 -52 -32 -31 -59 9 -12 21 -17 37 -13 39 10 43 8 43 -26 0 -25
5 -33 22 -35 14 -2 27 4 35 17 17 28 32 26 46 -4 12 -26 40 -34 46 -12 3 6 7
24 10 40 6 27 7 27 37 11 29 -14 32 -14 44 3 12 15 11 22 -2 42 -17 26 -10 38
27 43 35 4 39 41 5 56 -30 14 -32 26 -4 46 33 23 21 50 -24 54 -32 3 -37 6
-31 20 4 9 9 30 12 45 l5 29 -53 -27 c-41 -21 -55 -24 -66 -14 -25 21 -16 48
21 66 20 9 38 27 41 39 9 34 -52 144 -80 144 -6 0 -34 -14 -63 -31z m74 -64
c28 -49 28 -61 3 -75 -16 -9 -25 -6 -45 14 -13 13 -27 36 -31 50 -17 68 37 76
73 11z m-233 -111 c22 -8 76 -106 76 -137 0 -25 -23 -42 -41 -31 -13 8 -52 72
-68 112 -11 25 -11 35 -1 47 14 17 13 17 34 9z"/>
<path d="M905 1470 c-4 -6 -12 -9 -18 -7 -19 7 -397 -197 -397 -214 0 -5 3 -9
6 -9 3 0 88 45 187 100 100 54 189 102 197 105 11 4 19 -4 28 -28 15 -41 9
-60 -24 -78 -49 -26 -49 -43 -2 -132 51 -95 62 -100 131 -61 78 43 78 47 -5
196 -71 129 -89 151 -103 128z m70 -177 c40 -61 51 -102 32 -120 -8 -9 -23
-13 -31 -10 -22 9 -81 131 -73 151 11 28 45 18 72 -21z"/>
<path d="M668 1265 c-66 -35 -67 -51 -17 -148 48 -95 65 -117 90 -117 20 0
129 61 129 72 0 14 -19 9 -59 -14 -43 -25 -71 -19 -71 14 0 16 11 29 35 42 19
10 37 27 40 37 3 10 -8 44 -25 78 -35 70 -48 74 -122 36z m54 -32 c9 -10 23
-32 31 -49 13 -26 14 -34 3 -49 -20 -27 -46 -14 -73 38 -21 38 -23 50 -13 62
16 20 33 19 52 -2z"/>
<path d="M215 1231 c-8 -36 -24 -39 -50 -11 -14 15 -22 17 -37 9 -11 -6 -18
-16 -15 -22 22 -59 21 -60 -17 -54 -29 5 -38 2 -47 -15 -9 -16 -7 -23 10 -35
28 -19 26 -39 -4 -47 -18 -5 -25 -13 -25 -31 0 -20 6 -27 30 -31 34 -7 36 -11
15 -42 -22 -30 -4 -67 25 -52 36 19 50 12 50 -24 0 -44 27 -52 56 -18 l21 25
31 -23 31 -23 80 41 c88 46 111 50 133 25 59 -68 49 -96 -57 -156 -47 -27 -85
-55 -85 -63 0 -23 17 -17 114 37 105 59 136 85 136 112 0 29 -66 143 -87 152
-12 4 -46 -8 -96 -34 -43 -23 -87 -41 -98 -41 -24 0 -60 57 -57 90 2 20 20 34
88 72 103 57 117 82 41 72 l-51 -7 11 33 c10 26 9 35 -5 48 -14 15 -18 14 -41
-8 -28 -26 -29 -26 -42 15 -14 43 -49 46 -58 6z m65 -136 c7 -9 11 -17 9 -19
-2 -1 -21 -13 -41 -25 -20 -12 -40 -31 -43 -41 -12 -39 -35 -15 -35 38 0 14 7
34 17 44 20 22 76 24 93 3z"/>
<path d="M470 1220 c-13 -8 -6 -26 40 -117 70 -136 198 -364 214 -381 11 -11
38 1 149 68 75 45 139 85 142 90 3 5 -2 16 -11 25 -15 14 -18 14 -40 0 -91
-59 -207 -124 -214 -120 -7 4 -67 110 -217 383 -36 65 -39 68 -63 52z"/>
<path d="M1108 1126 c-21 -12 -40 -25 -44 -29 -3 -3 12 -39 34 -79 22 -40 110
-206 197 -368 87 -162 162 -301 167 -307 13 -17 37 -17 44 0 7 18 -113 234
-134 239 -10 3 -70 103 -149 251 -73 135 -133 248 -133 251 0 3 18 15 40 26
22 11 40 25 40 30 0 15 -21 10 -62 -14z"/>
<path d="M1042 898 c-9 -9 1 -36 44 -117 64 -121 71 -131 87 -126 7 3 59 -84
127 -211 125 -235 135 -252 145 -242 6 6 -341 663 -367 696 -13 15 -21 15 -36
0z"/>
<path d="M1952 824 c-66 -349 -368 -653 -725 -730 -94 -20 -280 -20 -374 0
-240 52 -455 200 -591 408 -50 78 -107 201 -119 258 -9 47 -27 50 -19 4 12
-65 47 -165 86 -244 206 -410 666 -611 1100 -479 330 100 590 400 650 749 6
36 13 73 15 83 2 9 0 17 -4 17 -3 0 -12 -30 -19 -66z"/>
<path d="M1002 827 c2 -7 68 -133 146 -280 124 -230 162 -291 162 -260 0 16
-293 553 -302 553 -5 0 -8 -6 -6 -13z"/>
</g>
</svg>
